<?xml version="1.0" encoding="iso-8859-1"?>
<!-- Generator: Adobe Illustrator 19.0.0, SVG Export Plug-In . SVG Version: 6.00 Build 0)  -->
<svg xmlns="http://www.w3.org/2000/svg" xmlns:xlink="http://www.w3.org/1999/xlink" version="1.1" id="Capa_1" x="0px" y="0px" viewBox="0 0 400.384 400.384" style="enable-background:new 0 0 400.384 400.384;" xml:space="preserve" width="60px" height="60px">
<g>
	<g>
		<path d="M383.488,200.192c10.24-10.24,16.384-24.064,16.384-39.424c0-30.208-24.576-54.784-54.784-54.784    c-28.16,0-51.712,22.016-54.272,49.664h-181.76c-2.56-27.648-26.112-49.664-54.272-49.664C24.576,105.984,0,130.56,0,160.768    c0,15.36,6.144,29.184,16.896,39.424C6.144,210.432,0,224.768,0,239.616C0,269.824,24.576,294.4,54.784,294.4    c28.16,0,51.712-22.016,54.272-49.664h182.272c2.56,27.648,26.112,49.664,54.272,49.664c30.208,0,54.784-24.576,54.784-54.784    C400.384,224.256,394.24,210.432,383.488,200.192z M345.088,284.672c-24.576,0-44.544-19.968-44.544-44.544v-0.512    c0-3.072-2.048-5.12-5.12-5.12H103.936c-3.072,0-5.12,2.56-5.12,5.632c0,24.576-19.968,44.544-44.544,44.544    S9.728,264.704,9.728,240.128c0-14.336,6.656-27.136,17.92-35.328c1.536-1.024,2.048-2.56,2.048-4.096s-0.512-3.072-2.048-4.096    c-11.264-8.704-17.92-21.504-17.92-35.328c0-24.576,19.968-44.544,44.544-44.544s44.544,19.968,44.544,44.544    c0,3.072,2.048,5.12,5.12,5.12h192c3.072,0,5.12-2.048,5.12-5.12c0-24.576,19.968-44.544,44.544-44.544    s44.544,19.968,44.544,44.544c0,14.336-6.656,27.136-17.92,35.328c-1.536,1.024-2.048,2.56-2.048,4.096s0.512,3.072,2.048,4.096    c10.752,8.192,17.408,20.992,17.408,35.328C389.632,264.704,369.664,284.672,345.088,284.672z" fill="#FFFFFF"/>
	</g>
</g>
<g>
</g>
<g>
</g>
<g>
</g>
<g>
</g>
<g>
</g>
<g>
</g>
<g>
</g>
<g>
</g>
<g>
</g>
<g>
</g>
<g>
</g>
<g>
</g>
<g>
</g>
<g>
</g>
<g>
</g>
</svg>
