<?xml version="1.0" encoding="iso-8859-1"?>
<!-- Generator: Adobe Illustrator 19.0.0, SVG Export Plug-In . SVG Version: 6.00 Build 0)  -->
<svg xmlns="http://www.w3.org/2000/svg" xmlns:xlink="http://www.w3.org/1999/xlink" version="1.1" id="Capa_1" x="0px" y="0px" viewBox="0 0 403.968 403.968" style="enable-background:new 0 0 403.968 403.968;" xml:space="preserve" width="60px" height="60px">
<g>
	<g>
		<path d="M379.392,109.312H24.064C10.752,109.312,0,120.064,0,133.376v47.616c0,13.312,10.752,24.064,24.064,24.064h161.792    c-1.024,2.56-1.024,5.632-0.512,8.704c0.512,1.024,1.024,2.56,1.536,3.584c-8.704,3.072-15.872,9.216-20.48,16.896    c-5.632,9.216-7.168,19.968-4.608,30.208c2.56,10.24,9.216,18.944,17.92,24.576c6.144,3.584,13.312,5.632,20.48,5.632    c3.072,0,6.656-0.512,9.728-1.024c10.24-2.56,18.944-9.216,24.576-17.92c5.632-9.216,7.168-19.968,4.608-30.208    c-3.584-13.312-13.312-23.552-25.088-27.648c2.048-3.584,2.56-7.168,1.536-10.752c0-0.512-0.512-1.024-0.512-1.024h164.864    c13.312,0,24.064-10.752,24.064-24.064V134.4C403.456,120.064,392.704,109.312,379.392,109.312z M228.864,247.04    c4.096,15.872-5.632,31.744-21.504,35.84c-7.68,2.048-15.36,0.512-22.016-3.072c-6.656-4.096-11.264-10.24-13.312-17.92    c-2.048-7.68-0.512-15.36,3.072-22.016c4.096-6.656,10.24-11.264,17.92-13.312c2.56-0.512,4.608-1.024,7.168-1.024    C213.504,225.024,225.28,233.728,228.864,247.04z M196.096,207.104c0.512-1.024,1.536-2.048,3.072-2.048c0.512,0,1.024,0,1.024,0    c2.048,0,4.096,1.536,4.608,3.584c0.512,1.024,0,2.56-0.512,3.584c-0.512,1.024-1.536,2.048-3.072,2.048    c-1.024,0.512-2.56,0-3.584-0.512c-1.024-0.512-2.048-1.536-2.048-3.072C195.072,209.664,195.584,208.128,196.096,207.104z     M24.064,194.304v0.512c-7.68,0-13.824-6.144-13.824-13.824v-47.616c0-7.68,6.144-13.824,13.824-13.824h249.344l36.864,34.816    l-37.376,39.936H24.064z M393.728,180.992h-0.512c0,7.68-6.144,13.824-13.824,13.824h-92.16l34.304-36.864    c2.048-2.048,2.048-5.12,0-7.168l-32.768-31.232h91.136c7.68,0,13.824,6.144,13.824,13.824V180.992z" fill="#FFFFFF"/>
	</g>
</g>
<g>
	<g>
		<circle cx="174.592" cy="156.928" r="9.728" fill="#FFFFFF"/>
	</g>
</g>
<g>
	<g>
		<circle cx="224.256" cy="156.928" r="9.728" fill="#FFFFFF"/>
	</g>
</g>
<g>
	<g>
		<circle cx="124.928" cy="156.928" r="9.728" fill="#FFFFFF"/>
	</g>
</g>
<g>
	<g>
		<circle cx="75.264" cy="156.928" r="9.728" fill="#FFFFFF"/>
	</g>
</g>
<g>
</g>
<g>
</g>
<g>
</g>
<g>
</g>
<g>
</g>
<g>
</g>
<g>
</g>
<g>
</g>
<g>
</g>
<g>
</g>
<g>
</g>
<g>
</g>
<g>
</g>
<g>
</g>
<g>
</g>
</svg>
