<?xml version="1.0" encoding="iso-8859-1"?>
<!-- Generator: Adobe Illustrator 19.0.0, SVG Export Plug-In . SVG Version: 6.00 Build 0)  -->
<svg xmlns="http://www.w3.org/2000/svg" xmlns:xlink="http://www.w3.org/1999/xlink" version="1.1" id="Capa_1" x="0px" y="0px" viewBox="0 0 388.352 388.352" style="enable-background:new 0 0 388.352 388.352;" xml:space="preserve" width="30px" height="30px">
<g>
	<g>
		<path d="M326.272,102.656L196.736,29.952c-1.536-1.024-3.584-1.024-5.12,0L62.08,102.656c-1.536,1.024-2.56,2.56-2.56,4.608    v275.968c0,3.072,2.048,5.12,5.12,5.12h259.584c3.072,0,5.12-2.048,5.12-5.12v-276.48    C328.832,105.216,327.808,103.168,326.272,102.656z M259.712,377.6H259.2H129.664V252.16c0-35.328,29.184-64,65.024-64    c35.84,0,65.024,28.672,65.024,64V377.6z M318.592,377.6h-49.664V252.16c0-40.96-33.792-74.24-75.264-74.24    c-41.472,0-75.264,33.28-75.264,74.24V377.6H68.736V109.824l124.416-69.632l125.44,69.632V377.6z" fill="#00ffcc"/>
	</g>
</g>
<g>
	<g>
		<path d="M383.104,105.216L196.736,0.768c-1.536-1.024-3.584-1.024-5.12,0L5.248,105.216c-2.56,1.536-3.584,4.608-2.048,7.168    s4.608,3.584,7.168,2.048L194.176,11.008l183.808,103.424c1.024,0.512,1.536,0.512,2.56,0.512c2.048,0,3.584-1.024,4.608-2.56    C386.688,109.824,385.664,106.752,383.104,105.216z" fill="#00ffcc"/>
	</g>
</g>
<g>
</g>
<g>
</g>
<g>
</g>
<g>
</g>
<g>
</g>
<g>
</g>
<g>
</g>
<g>
</g>
<g>
</g>
<g>
</g>
<g>
</g>
<g>
</g>
<g>
</g>
<g>
</g>
<g>
</g>
</svg>
