<?xml version="1.0" encoding="iso-8859-1"?>
<!-- Generator: Adobe Illustrator 19.0.0, SVG Export Plug-In . SVG Version: 6.00 Build 0)  -->
<svg xmlns="http://www.w3.org/2000/svg" xmlns:xlink="http://www.w3.org/1999/xlink" version="1.1" id="Capa_1" x="0px" y="0px" viewBox="0 0 429.568 429.568" style="enable-background:new 0 0 429.568 429.568;" xml:space="preserve" width="60px" height="60px">
<g>
	<g>
		<path d="M242.176,243.968c-4.608-14.848-20.48-24.064-35.84-20.48c-7.68,2.048-13.824,6.656-17.408,13.312    c-4.096,6.656-5.12,14.336-3.072,21.504c2.048,7.168,6.656,13.824,13.312,17.408c4.608,2.56,9.728,4.096,14.848,4.096    c2.56,0,4.608-0.512,7.168-1.024C236.544,275.2,245.76,259.328,242.176,243.968z M218.112,269.056    c-4.608,1.024-9.728,0.512-13.824-2.048s-7.168-6.656-8.192-11.264c-1.024-4.608-0.512-9.728,2.048-13.824    s6.656-7.168,11.264-8.192c1.536-0.512,3.072-0.512,4.608-0.512c8.192,0,15.872,5.632,17.92,13.824    C233.984,256.768,227.84,267.008,218.112,269.056z" fill="#FFFFFF"/>
	</g>
</g>
<g>
	<g>
		<path d="M184.832,224.512c-1.024-3.584-3.584-7.168-6.656-9.216c-3.584-2.048-7.168-2.56-11.264-1.536    c-3.584,1.024-7.168,3.584-9.216,6.656c-2.048,3.584-2.56,7.168-1.536,11.264c1.536,6.656,7.68,11.264,14.336,11.264    c1.024,0,2.56,0,3.584-0.512C181.76,239.872,186.88,232.192,184.832,224.512z M171.52,232.192    c-2.56,0.512-4.608-1.024-5.632-3.072c-0.512-1.024,0-2.56,0.512-3.584c0.512-1.024,1.536-1.536,2.56-2.048    c0.512,0,0.512,0,1.024,0c1.024,0,1.536,0,2.048,0.512c1.024,0.512,1.536,1.536,2.048,2.56    C175.616,229.12,174.08,231.68,171.52,232.192z" fill="#FFFFFF"/>
	</g>
</g>
<g>
	<g>
		<path d="M209.92,200.448c-1.024-3.584-3.584-7.168-6.656-9.216c-3.584-2.048-7.168-2.56-11.264-1.536    c-3.584,1.024-7.168,3.584-9.216,6.656c-1.536,3.072-2.56,7.168-1.536,11.264c1.536,6.656,7.68,11.264,14.336,11.264    c1.024,0,2.56,0,3.584-0.512c3.584-1.024,7.168-3.584,9.216-6.656C210.432,208.128,210.944,204.544,209.92,200.448z     M199.68,206.08c-0.512,1.024-1.536,1.536-2.56,2.048c-2.56,0.512-4.608-1.024-5.632-3.072c-0.512-2.56,0.512-5.12,3.072-5.632    c1.024-0.512,2.56,0,3.584,0.512c1.024,0.512,1.536,1.536,2.048,2.56C200.704,203.52,200.192,205.056,199.68,206.08z" fill="#FFFFFF"/>
	</g>
</g>
<g>
	<g>
		<path d="M245.76,199.936c-1.024-3.584-3.584-7.168-6.656-9.216c-3.584-2.048-7.168-2.56-11.264-1.536    c-3.584,1.024-7.168,3.584-9.216,6.656c-2.048,3.584-2.56,7.168-1.536,11.264c1.024,4.096,3.072,7.168,6.656,9.216    c2.56,1.536,5.12,2.048,7.68,2.048c1.024,0,2.56,0,3.584-0.512C242.688,215.808,247.808,208.128,245.76,199.936z M231.936,208.128    c-2.56,0.512-4.608-1.024-5.632-3.072c0.512-1.536,0.512-2.56,1.024-3.584c0.512-1.024,1.536-1.536,2.56-2.048    c0.512,0,0.512,0,1.024,0c1.024,0,1.536,0,2.048,0.512c1.024,0.512,1.536,1.536,2.048,2.56    C235.52,205.056,233.984,207.104,231.936,208.128z" fill="#FFFFFF"/>
	</g>
</g>
<g>
	<g>
		<path d="M271.36,224c-2.048-8.192-10.24-12.8-17.92-10.752c-7.68,2.048-12.8,9.728-10.752,17.92    c1.024,3.584,3.584,7.168,6.656,9.216c2.56,1.536,5.12,2.048,7.68,2.048c1.024,0,2.56,0,3.584-0.512    C268.288,239.872,273.408,232.192,271.36,224z M258.048,231.68c-1.024,0.512-2.56,0-3.584-0.512    c-1.024-0.512-1.536-1.536-2.048-2.56c-0.512-2.56,1.024-4.608,3.072-5.632c2.56-0.512,4.608,1.024,5.632,3.072    C261.632,228.608,260.096,231.168,258.048,231.68z" fill="#FFFFFF"/>
	</g>
</g>
<g>
	<g>
		<path d="M429.056,271.104L386.56,150.272c-0.512-6.656-8.704-13.312-53.248-18.944c-31.744-4.096-73.728-6.144-118.784-6.144    c-44.544,0-87.04,2.048-118.784,6.144c-43.52,5.632-51.712,12.288-52.736,18.944L0.512,271.104c0,0.512-0.512,1.024-0.512,1.536    c0,7.68,7.68,16.384,66.048,24.064c39.936,5.12,92.672,7.68,148.992,7.68s109.056-2.56,148.992-7.68    c57.856-7.68,65.536-16.384,65.536-24.064C429.568,272.128,429.568,271.616,429.056,271.104z M215.04,134.912    c91.136,0,150.528,9.216,160.768,15.872c-10.24,6.656-69.12,15.872-160.768,15.872c-91.136,0-150.528-9.216-160.768-15.872    C64.512,144.128,123.392,134.912,215.04,134.912z M215.04,294.144c-120.832,0-196.096-12.288-204.288-21.504l39.424-112.128    c7.168,3.584,20.48,7.168,46.08,10.752c31.744,4.096,73.728,6.144,118.784,6.144c44.544,0,87.04-2.048,118.784-6.144    c25.6-3.072,38.912-6.656,46.08-10.752l39.424,112.128C411.136,281.344,335.872,294.144,215.04,294.144z" fill="#FFFFFF"/>
	</g>
</g>
<g>
</g>
<g>
</g>
<g>
</g>
<g>
</g>
<g>
</g>
<g>
</g>
<g>
</g>
<g>
</g>
<g>
</g>
<g>
</g>
<g>
</g>
<g>
</g>
<g>
</g>
<g>
</g>
<g>
</g>
</svg>
