<?xml version="1.0" encoding="iso-8859-1"?>
<!-- Generator: Adobe Illustrator 19.0.0, SVG Export Plug-In . SVG Version: 6.00 Build 0)  -->
<svg xmlns="http://www.w3.org/2000/svg" xmlns:xlink="http://www.w3.org/1999/xlink" version="1.1" id="Layer_1" x="0px" y="0px" viewBox="0 0 512.001 512.001" style="enable-background:new 0 0 512.001 512.001;" xml:space="preserve" width="30px" height="30px">
<g>
	<g>
		<path d="M231.803,208.393c-2.63-3.2-7.357-3.662-10.556-1.032c-5.307,4.361-12.941,6.863-20.945,6.863    c-8.004,0-15.638-2.501-20.945-6.863c-3.201-2.63-7.927-2.167-10.556,1.032c-2.63,3.2-2.168,7.926,1.032,10.556    c8.062,6.626,18.882,10.275,30.469,10.275s22.408-3.649,30.469-10.275C233.971,216.319,234.433,211.593,231.803,208.393z" fill="#00ffcc"/>
	</g>
</g>
<g>
	<g>
		<path d="M157.458,154.241c-4.142,0-7.5,3.358-7.5,7.5v8.569c0,4.142,3.358,7.5,7.5,7.5c4.142,0,7.5-3.358,7.5-7.5v-8.569    C164.958,157.6,161.6,154.241,157.458,154.241z" fill="#00ffcc"/>
	</g>
</g>
<g>
	<g>
		<path d="M243.147,154.242c-4.142,0-7.5,3.358-7.5,7.5v8.569c0,4.141,3.358,7.5,7.5,7.5c4.142,0,7.5-3.358,7.5-7.5v-8.569    C250.647,157.6,247.289,154.242,243.147,154.242z" fill="#00ffcc"/>
	</g>
</g>
<g>
	<g>
		<path d="M311.699,308.483c-4.142,0-7.5,3.358-7.5,7.5v8.569c0,4.142,3.358,7.5,7.5,7.5c4.142,0,7.5-3.358,7.5-7.5v-8.569    C319.199,311.841,315.841,308.483,311.699,308.483z" fill="#00ffcc"/>
	</g>
</g>
<g>
	<g>
		<path d="M380.25,308.483c-4.142,0-7.5,3.358-7.5,7.5v8.569c0,4.142,3.358,7.5,7.5,7.5c4.142,0,7.5-3.358,7.5-7.5v-8.569    C387.75,311.841,384.392,308.483,380.25,308.483z" fill="#00ffcc"/>
	</g>
</g>
<g>
	<g>
		<path d="M320.268,479.862c-4.142,0-7.5,3.357-7.5,7.5V504.5c0,4.142,3.358,7.5,7.5,7.5c4.142,0,7.5-3.358,7.5-7.5v-17.138    C327.768,483.22,324.41,479.862,320.268,479.862z" fill="#00ffcc"/>
	</g>
</g>
<g>
	<g>
		<path d="M371.682,479.862c-4.142,0-7.5,3.357-7.5,7.5V504.5c0,4.142,3.358,7.5,7.5,7.5c4.142,0,7.5-3.358,7.5-7.5v-17.138    C379.182,483.22,375.824,479.862,371.682,479.862z" fill="#00ffcc"/>
	</g>
</g>
<g>
	<g>
		<path d="M463.611,277.547c-17.647-26.472-51.712-52.173-53.154-53.254c-2.985-2.239-7.164-1.942-9.803,0.697l-16.622,16.622    c-11.203-6.504-24.197-10.25-38.057-10.25c-7.475,0-14.694,1.102-21.523,3.121c-2.556-27.125-5.253-67.212-5.253-115.587    C319.199,53.337,265.862,0,200.302,0S81.406,53.337,81.406,118.896c0,84.096-8.409,144.017-8.494,144.612    c-0.456,3.195,1.184,6.325,4.071,7.769c1.383,0.691,33.247,16.529,66.725,25.408c-1.143,0.991-2.416,1.857-3.815,2.557    l-74.407,37.204c-11.322,5.661-18.356,17.042-18.356,29.701v35.526c0,6.152,3.479,11.501,8.569,14.201V504.5    c0,4.142,3.358,7.5,7.5,7.5c4.142,0,7.5-3.358,7.5-7.5v-86.759h27.845V504.5c0,4.142,3.358,7.5,7.5,7.5c4.142,0,7.5-3.358,7.5-7.5    V393.104c0-4.142-3.358-7.5-7.5-7.5c-4.142,0-7.5,3.358-7.5,7.5v9.638H63.199c-0.589,0-1.069-0.479-1.069-1.069v-35.526    c0-6.941,3.856-13.181,10.064-16.285l40.184-20.092c12.99,36.996,48.167,62.265,87.924,62.265    c29.108,0,55.833-13.285,73.287-35.583c2.971,9.221,7.711,17.843,14.001,25.378c0.94,5.249,3.11,10.074,6.211,14.162    l-15.235,107.455c-0.582,4.101,2.272,7.897,6.373,8.479c0.357,0.051,0.711,0.075,1.062,0.075c3.675,0,6.886-2.704,7.417-6.448    l14.031-98.957c1.275,0.536,2.593,0.987,3.943,1.362c7.732,11.389,20.711,18.353,34.584,18.353    c13.815,0,26.852-6.981,34.58-18.352c1.345-0.374,2.659-0.824,3.931-1.357l14.046,98.952c0.532,3.744,3.741,6.447,7.417,6.447    c0.351,0,0.706-0.024,1.063-0.075c4.101-0.582,6.954-4.379,6.372-8.48l-15.25-107.434c3.108-4.091,5.284-8.923,6.226-14.179    c10.316-12.354,16.41-27.606,17.479-43.629c25.792-12.588,41.789-51.94,42.497-53.711    C465.252,282.199,464.981,279.602,463.611,277.547z M96.404,118.895C96.406,61.607,143.014,15,200.302,15    c57.289,0,103.896,46.607,103.896,103.896c0,51.729,3.05,94.111,5.76,121.553c-0.69,0.373-1.365,0.769-2.042,1.162l-16.622-16.622    c-0.065-0.065-0.134-0.122-0.2-0.183c6.083-11.976,9.865-25.309,10.76-39.414c0.135-0.563,0.206-6.514,0.206-6.514    c0-44.596-33.748-52.465-72.824-61.577c-21.012-4.9-44.828-10.453-68.426-22.252c-3.693-1.847-8.192-0.345-10.055,3.34    c-0.157,0.31-15.864,30.803-45.746,38.734c-3.105,0.128-6.06,0.84-8.767,2.019C96.346,132.564,96.404,125.813,96.404,118.895z     M287.061,178.878c0,47.839-38.92,86.758-86.759,86.758s-86.759-38.918-86.759-86.757c0-4.142-3.358-7.5-7.5-7.5    c-5.314,0-9.638-4.324-9.638-9.638c0-5.314,4.323-9.638,9.638-9.638c0.613,0,1.224-0.075,1.819-0.224    c28.11-7.028,45.454-29.273,52.579-40.38c22.977,10.521,45.404,15.75,65.39,20.41    C267.184,141.552,287.061,147.576,287.061,178.878z M88.471,260.146c1.373-11.147,4.418-38.647,6.311-76.508    c1.263,0.652,2.583,1.208,3.96,1.637c2.188,35.118,22.272,65.461,51.215,82.008v15.524    C124.501,276.347,98.839,264.987,88.471,260.146z M200.302,377.034c-34.001,0-64.006-22.023-74.378-54.038l20.677-10.338    c11.323-5.661,18.356-17.042,18.356-29.701v-8.654c11.015,4.093,22.922,6.335,35.345,6.335c9.983,0,19.633-1.448,28.755-4.14    c-0.239,0.35-0.486,0.699-0.72,1.049c-1.37,2.055-1.641,4.652-0.723,6.945c0.692,1.731,15.991,39.369,40.767,52.822    C254.494,361.907,228.755,377.034,200.302,377.034z M269.924,307.414v12.978c-12.202-9.694-22.161-27.578-26.811-37.818    c12.659-17.464,32.887-34.694,42.281-42.272l10.206,10.205C279.867,264.45,269.924,284.788,269.924,307.414z M345.975,411.31    c-5.135,0.001-10.072-1.498-14.289-4.161c5.634-2.07,10.555-5.627,14.289-10.191c3.746,4.579,8.687,8.144,14.344,10.21    C356.116,409.837,351.184,411.31,345.975,411.31z M336.337,358.828c0-5.314,4.323-9.638,9.638-9.638s9.638,4.324,9.638,9.638    c0,5.314-4.324,9.638-9.638,9.638C340.661,368.466,336.337,364.142,336.337,358.828z M407.026,333.121    c0,9.408-2.173,18.583-6.246,26.879c-1.783-3.251-4.104-6.221-6.917-8.747c-3.082-2.768-7.824-2.513-10.591,0.569    c-2.767,3.082-2.513,7.824,0.569,10.591c3.843,3.452,6.047,8.391,6.047,13.552c0,10.039-8.167,18.207-18.207,18.207    c-7.944,0-14.698-5.122-17.179-12.23c9.395-3.478,16.11-12.526,16.11-23.115c0-13.585-11.053-24.638-24.638-24.638    c-13.585,0-24.638,11.053-24.638,24.638c0,10.589,6.715,19.637,16.109,23.115c-2.481,7.108-9.235,12.23-17.179,12.23    c-10.039,0-18.207-8.167-18.207-18.207c0-5.173,2.213-10.12,6.071-13.573c3.086-2.762,3.349-7.504,0.586-10.59    c-2.763-3.087-7.505-3.349-10.59-0.587c-2.832,2.535-5.168,5.517-6.96,8.785c-4.071-8.304-6.245-17.489-6.245-26.88v-25.707    c0-33.664,27.388-61.052,61.052-61.052s61.053,27.389,61.053,61.053V333.121z M422.026,320.403v-12.989    c0-22.626-9.943-42.964-25.676-56.907l10.207-10.207c9.391,7.571,29.609,24.789,42.284,42.278    C444.203,292.822,434.256,310.709,422.026,320.403z" fill="#00ffcc"/>
	</g>
</g>
<g>
</g>
<g>
</g>
<g>
</g>
<g>
</g>
<g>
</g>
<g>
</g>
<g>
</g>
<g>
</g>
<g>
</g>
<g>
</g>
<g>
</g>
<g>
</g>
<g>
</g>
<g>
</g>
<g>
</g>
</svg>
