<?xml version="1.0" encoding="iso-8859-1"?>
<!-- Generator: Adobe Illustrator 19.0.0, SVG Export Plug-In . SVG Version: 6.00 Build 0)  -->
<svg xmlns="http://www.w3.org/2000/svg" xmlns:xlink="http://www.w3.org/1999/xlink" version="1.1" id="Capa_1" x="0px" y="0px" viewBox="0 0 378.465 378.465" style="enable-background:new 0 0 378.465 378.465;" xml:space="preserve" width="30px" height="30px">
<g>
	<g>
		<path d="M296.502,222.233c-12.8-59.392-71.68-96.768-131.072-83.968s-96.768,71.68-83.968,131.072    c11.264,51.2,56.832,86.528,107.52,86.528c7.68,0,15.36-1.024,23.552-2.56C271.926,340.505,309.302,281.625,296.502,222.233z     M209.974,343.065c-53.76,11.776-107.008-22.528-118.784-76.288c-11.264-53.76,23.04-107.008,76.8-118.784    s107.008,22.528,118.784,76.288C298.038,278.041,263.734,331.289,209.974,343.065z" fill="#00ffcc"/>
	</g>
</g>
<g>
	<g>
		<path d="M83.51,150.553c-2.56-10.752-8.704-20.48-18.432-26.624c-9.216-6.144-20.48-8.192-31.744-5.632    c-10.752,2.56-20.48,8.704-26.624,18.432c-6.144,9.216-8.192,20.48-5.632,31.744c4.096,19.456,21.504,33.28,40.96,33.28    c3.072,0,6.144-0.512,8.704-1.024C73.782,195.609,88.118,173.593,83.51,150.553z M49.206,191.001    c-16.896,3.584-34.304-7.168-37.888-24.064c-2.048-8.192-0.512-16.896,4.096-24.064c4.608-7.168,11.776-12.288,19.968-13.824    c8.192-2.048,16.896-0.512,24.064,4.096c7.168,4.608,12.288,11.776,13.824,19.968C76.854,170.009,66.102,186.905,49.206,191.001z" fill="#00ffcc"/>
	</g>
</g>
<g>
	<g>
		<path d="M171.062,60.441c-2.56-12.288-10.24-23.04-20.992-30.208c-10.752-6.656-23.552-9.216-35.84-6.656    c-25.6,5.632-41.984,31.232-36.352,56.832c4.096,22.528,24.064,37.888,46.08,37.888c3.584,0,6.656-0.512,10.24-1.024    c12.288-2.56,23.04-10.24,30.208-20.992C171.062,85.529,173.622,72.729,171.062,60.441z M155.702,90.649    c-5.632,8.192-13.824,14.336-23.552,16.384c-9.728,2.048-19.968,0.512-28.16-5.12c-8.192-5.632-14.336-13.824-16.384-23.552    c-2.56-9.728-0.512-19.456,4.608-28.16c5.632-8.192,13.824-14.336,23.552-16.384c2.56-0.512,5.632-1.024,8.192-1.024    c7.168,0,14.336,2.048,20.48,6.144c8.192,5.632,14.336,13.824,16.384,23.552C162.87,72.217,161.334,82.457,155.702,90.649z" fill="#00ffcc"/>
	</g>
</g>
<g>
	<g>
		<path d="M303.67,60.441c-2.56-12.288-10.24-23.04-20.992-30.208c-10.752-6.656-23.552-9.216-35.84-6.656    c-12.288,2.56-23.04,10.24-30.208,20.992c-6.656,10.752-9.216,23.552-6.656,35.84c5.12,22.528,24.576,37.888,46.592,37.888    c3.584,0,6.656-0.512,10.24-1.024c12.288-2.56,23.04-10.24,30.208-20.992C303.67,85.529,306.23,72.729,303.67,60.441z     M288.822,90.649c-5.632,8.192-13.824,14.336-23.552,16.384c-9.728,2.048-19.968,0.512-28.16-5.12    c-8.192-5.632-14.336-13.824-16.384-23.552c-2.56-9.728-1.024-19.456,4.608-28.16c5.632-8.192,13.824-14.336,23.552-16.384    c2.56-0.512,5.632-1.024,8.192-1.024c7.168,0,14.336,2.048,20.48,6.144c8.192,5.632,14.336,13.824,16.384,23.552    C295.99,72.217,294.454,82.457,288.822,90.649z" fill="#00ffcc"/>
	</g>
</g>
<g>
	<g>
		<path d="M377.398,150.553c-2.56-10.752-8.704-20.48-18.432-26.624c-9.216-6.144-20.48-8.192-31.744-5.632    c-10.752,2.56-20.48,8.704-26.624,18.432c-6.144,9.216-8.192,20.48-5.632,31.744c4.096,19.456,21.504,33.28,40.96,33.28    c3.072,0,6.144-0.512,8.704-1.024c10.752-2.56,20.48-8.704,26.624-18.432C377.91,173.081,379.958,161.817,377.398,150.553z     M363.062,176.665c-4.608,7.168-11.776,12.288-19.968,13.824c-16.896,3.584-34.304-7.168-37.888-24.064    c-2.048-8.192-0.512-16.896,4.096-24.064c4.608-7.168,11.776-12.288,19.968-13.824c8.192-2.048,16.896-0.512,24.064,4.096    c7.168,4.608,12.288,11.776,13.824,19.968C369.206,161.305,367.67,169.497,363.062,176.665z" fill="#00ffcc"/>
	</g>
</g>
<g>
</g>
<g>
</g>
<g>
</g>
<g>
</g>
<g>
</g>
<g>
</g>
<g>
</g>
<g>
</g>
<g>
</g>
<g>
</g>
<g>
</g>
<g>
</g>
<g>
</g>
<g>
</g>
<g>
</g>
</svg>
